<svg xmlns="http://www.w3.org/2000/svg" viewBox="0 0 64 64" role="img" aria-label="Laptop repair">
  <defs>
    <linearGradient id="bg" x1="8" y1="8" x2="56" y2="56" gradientUnits="userSpaceOnUse">
      <stop stop-color="#164c8c"/>
      <stop offset="1" stop-color="#2f7ec7"/>
    </linearGradient>
  </defs>
  <rect x="4" y="4" width="56" height="56" rx="15" fill="url(#bg)"/>
  <rect x="14" y="15" width="36" height="27" rx="4" fill="none" stroke="#fff" stroke-width="3.5"/>
  <path d="M10.5 46h43l-3.2 4H13.7l-3.2-4Z" fill="#fff"/>
  <path d="M39.2 20.5a7 7 0 0 0-8.4 8.9L22 38.2a3 3 0 1 0 4.2 4.2l8.8-8.8a7 7 0 0 0 8.9-8.4l-4.2 1.4-3.1-3.1 1.4-4.2c.4.3.8.7 1.2 1.2Z" fill="#fff"/>
  <circle cx="24.1" cy="40.3" r="1.3" fill="#164c8c"/>
</svg>
